:SAMPLES-PER-SECOND 30
:FULLY-SPECIFIED
:DEGREES
82
root  83.6339 39.2345 0.778452 -110.057 -87.0998 109.905
RightUpLeg  -2.97207 -5.3756 -4.94483
RightLeg  10.4812 10.0212 -0.0254679
RightFoot  -7.73225 -0.0385527 -0.440771
RightToes  -6.40286e-010 0 -3.6325e-017
Spine  3.99734 -0.0135409 2.164
Spine1  -2.85965 0.256293 -1.46067
HEad  -0.119647 -4.43958 -4.93824
LeftShoulder1  -0.567042 5.19906 -27.2703
LeftArm  -16.2051 14.4033 -26.2451
LeftForeArm  20.7585 -18.7107 -3.00809
LeftHand  -0.0494767 4.42061 3.3537
RightShoulder  -0.472657 -5.00011 24.761
RightArm  -0.834772 -14.0438 28.0584
RightForeArm  14.1107 15.3237 1.54297
RightHand  -0.12738 5.02307 -1.71878
LeftUpLeg  -0.134447 7.11611 3.57801
LeftLeg  2.18459 0.50765 -0.15923
LeftFoot  -1.56584 0.194713 -2.16421
LeftToes  1.32783e-010 1.73515e-011 1.59258e-011
83
root  83.5659 39.1805 0.682639 -93.1399 -87.0683 92.6184
RightUpLeg  -2.77512 -5.13663 -5.00215
RightLeg  11.4718 8.84288 -0.00920759
RightFoot  -8.55659 -0.0434413 -0.58361
RightToes  -6.40286e-010 0 -3.6325e-017
Spine  2.09308 -0.412526 2.15228
Spine1  1.06534 -0.129867 -1.35656
HEad  -2.14837 -3.75418 -4.53533
LeftShoulder1  -0.756035 5.64917 -29.0134
LeftArm  -15.3594 14.1682 -28.7896
LeftForeArm  20.7851 -18.3992 -3.10378
LeftHand  -0.0385392 4.67419 3.20446
RightShoulder  -0.58768 -5.32329 25.5395
RightArm  -0.532175 -13.7502 32.1841
RightForeArm  15.2217 13.086 1.17964
RightHand  -0.0515589 5.12952 -0.885354
LeftUpLeg  -0.192393 6.90816 3.50251
LeftLeg  3.03623 -0.118374 -0.000550227
LeftFoot  -2.15285 0.200828 -2.33724
LeftToes  1.32783e-010 1.73515e-011 1.59258e-011
84
root  83.4572 39.1267 0.555725 -73.5679 -87.0322 72.3337
RightUpLeg  -1.9861 -4.7773 -4.7913
RightLeg  12.2503 7.54199 -0.170906
RightFoot  -9.48664 -0.0561646 -0.508501
RightToes  -6.40286e-010 0 -3.6325e-017
Spine  1.22797 -0.820858 2.18385
Spine1  3.71553 -0.564146 -1.04658
HEad  -3.48517 -3.1043 -5.26659
LeftShoulder1  -0.99869 6.19533 -30.9513
LeftArm  -13.9636 14.1433 -31.126
LeftForeArm  21.4415 -18.0267 -3.28217
LeftHand  -0.00456686 5.97673 4.79236
RightShoulder  -0.742376 -5.73237 26.6703
RightArm  -0.239166 -13.441 35.3688
RightForeArm  16.2343 10.6625 1.0661
RightHand  0.0628188 5.92733 0.325817
LeftUpLeg  0.00797275 6.8677 3.74469
LeftLeg  4.19051 -1.17283 0.1428
LeftFoot  -2.88166 0.201661 -2.4936
LeftToes  1.32783e-010 1.73515e-011 1.59258e-011
85
root  83.3188 39.0636 0.407693 -78.0846 -87.317 76.2159
RightUpLeg  -1.37595 -3.9124 -4.18328
RightLeg  12.8751 6.93459 -0.362658
RightFoot  -10.1909 -0.0615316 -0.762365
RightToes  -6.40286e-010 0 -3.6325e-017
Spine  0.286189 -0.5479 3.35605
Spine1  6.17894 -0.09826 -1.76138
HEad  -4.06276 -2.91264 -5.55656
LeftShoulder1  -1.09706 6.3479 -32.3994
LeftArm  -12.3308 14.6899 -33.1337
LeftForeArm  21.2242 -17.6747 -3.54188
LeftHand  -0.0205051 5.48764 4.19378
RightShoulder  -0.857804 -6.00324 27.7281
RightArm  -0.283039 -12.8702 38.41
RightForeArm  15.6297 7.49419 1.03758
RightHand  0.0123303 6.33464 -0.219055
LeftUpLeg  0.0908354 7.21527 4.45363
LeftLeg  6.07097 -1.51062 0.0763953
LeftFoot  -3.96574 0.207694 -2.85721
LeftToes  1.32783e-010 1.73515e-011 1.59258e-011
86
root  83.2073 38.9219 0.302106 -68.896 -87.715 66.3054
RightUpLeg  -1.04831 -4.11509 -3.67703
RightLeg  14.3904 6.84099 0.0217756
RightFoot  -11.2633 -0.0751529 -0.968782
RightToes  -6.40286e-010 0 -3.6325e-017
Spine  0.477086 -0.459701 5.1421
Spine1  7.08523 0.231498 -2.34359
HEad  -4.36416 -3.26064 -5.83924
LeftShoulder1  -1.10317 6.28468 -33.4817
LeftArm  -11.0664 15.7398 -35.1326
LeftForeArm  23.329 -17.1362 -3.72583
LeftHand  -0.0439886 4.71651 3.54816
RightShoulder  -0.919498 -6.09998 28.8488
RightArm  -0.028634 -12.7161 40.7099
RightForeArm  15.892 5.14149 1.14024
RightHand  0.00402249 5.48956 -0.26392
LeftUpLeg  -0.544351 6.70988 5.1394
LeftLeg  9.15009 -1.43825 0.243254
LeftFoot  -5.64978 0.194775 -3.2333
LeftToes  1.32783e-010 1.73515e-011 1.59258e-011
87
root  83.1035 38.7209 0.183576 -56.1177 -88.066 52.9931
RightUpLeg  -1.22112 -3.3848 -2.82486
RightLeg  16.4741 5.97191 0.154941
RightFoot  -12.72 -0.0976062 -0.945
RightToes  -6.40286e-010 0 -3.6325e-017
Spine  -0.0517548 -0.253391 7.00922
Spine1  9.13159 0.67568 -2.71826
HEad  -5.06178 -3.82006 -5.94876
LeftShoulder1  -1.04019 6.1133 -33.6691
LeftArm  -9.37905 16.5685 -37.9287
LeftForeArm  23.8431 -16.8479 -4.11792
LeftHand  -0.0113206 5.89663 3.59473
RightShoulder  -0.935962 -6.10965 29.3467
RightArm  0.664002 -11.8056 43.426
RightForeArm  16.7323 3.46701 1.55293
RightHand  -0.106694 5.61938 -1.45395
LeftUpLeg  -2.32398 4.9129 5.88223
LeftLeg  14.0701 0.00372525 0.498801
LeftFoot  -7.26756 0.169591 -3.53909
LeftToes  1.32783e-010 1.73515e-011 1.59258e-011
